# MagicaVoxel @ Ephtracy

# group
o 

# material
mtllib Missile.mtl
usemtl palette

# normals
vn -1 0 0
vn 1 0 0
vn 0 0 1
vn 0 0 -1
vn 0 -1 0
vn 0 1 0

# texcoords
vt 0.841797 0.5
vt 0.955078 0.5

# verts
v -0.4 0.4 0.4
v -0.4 0.4 0.3
v -0.4 0.5 0.4
v -0.4 0.5 0.3
v -0.3 0.6 0.5
v -0.3 0.6 0.4
v -0.3 0.7 0.5
v -0.3 0.7 0.4
v -0.2 0.4 0.4
v -0.2 0.4 0.2
v -0.2 0.4 -0.3
v -0.2 0.5 0.3
v -0.2 0.5 0.2
v -0.2 0.6 0.4
v -0.2 0.6 0.3
v -0.2 0.6 -0.3
v -0.1 0.3 0.4
v -0.1 0.3 0.2
v -0.1 0.3 -0.3
v -0.1 0.4 0.4
v -0.1 0.4 0.2
v -0.1 0.4 -0.3
v -0.1 0.4 -0.4
v -0.1 0.6 0.4
v -0.1 0.6 0.3
v -0.1 0.6 -0.3
v -0.1 0.6 -0.4
v -0.1 0.7 0.4
v -0.1 0.7 0.3
v -0.1 0.7 -0.3
v 0 0.4 0.3
v 0 0.4 0.2
v 0 0.5 0.3
v 0 0.5 0.2
v 0.1 0.5 0.3
v 0.1 0.5 0.2
v 0.1 0.6 0.3
v 0.1 0.6 0.2
v 0.4 0.3 0.4
v 0.4 0.3 0.3
v 0.4 0.4 0.4
v 0.4 0.4 0.3
v 0.4 0.5 0.5
v 0.4 0.5 0.4
v 0.4 0.6 0.5
v 0.4 0.6 0.4
v -0.3 0.4 0.4
v -0.3 0.4 0.3
v -0.3 0.5 0.4
v -0.3 0.5 0.3
v -0.2 0.6 0.5
v -0.2 0.6 0.4
v -0.2 0.7 0.5
v -0.2 0.7 0.4
v -0.1 0.4 0.3
v -0.1 0.4 0.2
v -0.1 0.5 0.3
v -0.1 0.5 0.2
v -0.1 0.6 0.3
v -0.1 0.6 0.2
v 0.1 0.3 0.4
v 0.1 0.3 0.2
v 0.1 0.3 -0.3
v 0.1 0.4 0.4
v 0.1 0.4 0.2
v 0.1 0.4 -0.3
v 0.1 0.4 -0.4
v 0.1 0.6 0.4
v 0.1 0.6 0.3
v 0.1 0.6 -0.3
v 0.1 0.6 -0.4
v 0.1 0.7 0.4
v 0.1 0.7 0.3
v 0.1 0.7 -0.3
v 0.2 0.4 0.4
v 0.2 0.4 0.3
v 0.2 0.4 0.2
v 0.2 0.4 -0.3
v 0.2 0.5 0.3
v 0.2 0.5 0.2
v 0.2 0.6 0.4
v 0.2 0.6 0.3
v 0.2 0.6 -0.3
v 0.3 0.4 0.3
v 0.3 0.4 0.2
v 0.3 0.5 0.3
v 0.3 0.5 0.2
v 0.5 0.3 0.4
v 0.5 0.3 0.3
v 0.5 0.4 0.4
v 0.5 0.4 0.3
v 0.5 0.5 0.5
v 0.5 0.5 0.4
v 0.5 0.6 0.5
v 0.5 0.6 0.4
v -0.3 0.6 0.5
v -0.3 0.7 0.5
v -0.2 0.6 0.5
v -0.2 0.7 0.5
v 0.4 0.5 0.5
v 0.4 0.6 0.5
v 0.5 0.5 0.5
v 0.5 0.6 0.5
v -0.4 0.4 0.4
v -0.4 0.5 0.4
v -0.3 0.4 0.4
v -0.3 0.5 0.4
v -0.2 0.4 0.4
v -0.2 0.6 0.4
v -0.1 0.3 0.4
v -0.1 0.4 0.4
v -0.1 0.6 0.4
v -0.1 0.7 0.4
v 0.1 0.3 0.4
v 0.1 0.4 0.4
v 0.1 0.6 0.4
v 0.1 0.7 0.4
v 0.2 0.4 0.4
v 0.2 0.6 0.4
v 0.4 0.3 0.4
v 0.4 0.4 0.4
v 0.5 0.3 0.4
v 0.5 0.4 0.4
v 0.2 0.4 0.3
v 0.2 0.5 0.3
v 0.3 0.4 0.3
v 0.3 0.5 0.3
v -0.1 0.4 0.2
v -0.1 0.5 0.2
v -0.1 0.6 0.2
v 0 0.4 0.2
v 0 0.5 0.2
v 0.1 0.5 0.2
v 0.1 0.6 0.2
v -0.3 0.6 0.4
v -0.3 0.7 0.4
v -0.2 0.6 0.4
v -0.2 0.7 0.4
v 0.4 0.5 0.4
v 0.4 0.6 0.4
v 0.5 0.5 0.4
v 0.5 0.6 0.4
v -0.4 0.4 0.3
v -0.4 0.5 0.3
v -0.3 0.4 0.3
v -0.3 0.5 0.3
v -0.1 0.4 0.3
v -0.1 0.5 0.3
v -0.1 0.6 0.3
v 0 0.4 0.3
v 0 0.5 0.3
v 0.1 0.5 0.3
v 0.1 0.6 0.3
v 0.4 0.3 0.3
v 0.4 0.4 0.3
v 0.5 0.3 0.3
v 0.5 0.4 0.3
v 0.2 0.4 0.2
v 0.2 0.5 0.2
v 0.3 0.4 0.2
v 0.3 0.5 0.2
v -0.2 0.4 -0.3
v -0.2 0.6 -0.3
v -0.1 0.3 -0.3
v -0.1 0.4 -0.3
v -0.1 0.6 -0.3
v -0.1 0.7 -0.3
v 0.1 0.3 -0.3
v 0.1 0.4 -0.3
v 0.1 0.6 -0.3
v 0.1 0.7 -0.3
v 0.2 0.4 -0.3
v 0.2 0.6 -0.3
v -0.1 0.4 -0.4
v -0.1 0.6 -0.4
v 0.1 0.4 -0.4
v 0.1 0.6 -0.4
v -0.1 0.3 0.4
v 0.1 0.3 0.4
v 0.4 0.3 0.4
v 0.5 0.3 0.4
v 0.4 0.3 0.3
v 0.5 0.3 0.3
v -0.1 0.3 0.2
v 0.1 0.3 0.2
v -0.1 0.3 -0.3
v 0.1 0.3 -0.3
v -0.4 0.4 0.4
v -0.3 0.4 0.4
v -0.2 0.4 0.4
v -0.1 0.4 0.4
v 0.1 0.4 0.4
v 0.2 0.4 0.4
v -0.4 0.4 0.3
v -0.3 0.4 0.3
v 0.2 0.4 0.3
v 0.3 0.4 0.3
v -0.2 0.4 0.2
v -0.1 0.4 0.2
v 0.1 0.4 0.2
v 0.2 0.4 0.2
v 0.3 0.4 0.2
v -0.2 0.4 -0.3
v -0.1 0.4 -0.3
v 0.1 0.4 -0.3
v 0.2 0.4 -0.3
v -0.1 0.4 -0.4
v 0.1 0.4 -0.4
v 0.4 0.5 0.5
v 0.5 0.5 0.5
v 0.4 0.5 0.4
v 0.5 0.5 0.4
v -0.3 0.6 0.5
v -0.2 0.6 0.5
v -0.3 0.6 0.4
v -0.2 0.6 0.4
v -0.1 0.6 0.3
v 0.1 0.6 0.3
v -0.1 0.6 0.2
v 0.1 0.6 0.2
v 0.4 0.4 0.4
v 0.5 0.4 0.4
v -0.1 0.4 0.3
v 0 0.4 0.3
v 0.4 0.4 0.3
v 0.5 0.4 0.3
v -0.1 0.4 0.2
v 0 0.4 0.2
v -0.4 0.5 0.4
v -0.3 0.5 0.4
v -0.4 0.5 0.3
v -0.3 0.5 0.3
v 0 0.5 0.3
v 0.1 0.5 0.3
v 0.2 0.5 0.3
v 0.3 0.5 0.3
v 0 0.5 0.2
v 0.1 0.5 0.2
v 0.2 0.5 0.2
v 0.3 0.5 0.2
v 0.4 0.6 0.5
v 0.5 0.6 0.5
v -0.2 0.6 0.4
v -0.1 0.6 0.4
v 0.1 0.6 0.4
v 0.2 0.6 0.4
v 0.4 0.6 0.4
v 0.5 0.6 0.4
v -0.2 0.6 0.3
v -0.1 0.6 0.3
v 0.1 0.6 0.3
v 0.2 0.6 0.3
v -0.2 0.6 -0.3
v -0.1 0.6 -0.3
v 0.1 0.6 -0.3
v 0.2 0.6 -0.3
v -0.1 0.6 -0.4
v 0.1 0.6 -0.4
v -0.3 0.7 0.5
v -0.2 0.7 0.5
v -0.3 0.7 0.4
v -0.2 0.7 0.4
v -0.1 0.7 0.4
v 0.1 0.7 0.4
v -0.1 0.7 0.3
v 0.1 0.7 0.3
v -0.1 0.7 -0.3
v 0.1 0.7 -0.3

# faces
f 3/1/1 2/1/1 1/1/1
f 4/1/1 2/1/1 3/1/1
f 7/1/1 6/1/1 5/1/1
f 8/1/1 6/1/1 7/1/1
f 12/1/1 10/1/1 9/1/1
f 13/2/1 11/2/1 10/2/1
f 13/1/1 10/1/1 12/1/1
f 14/1/1 12/1/1 9/1/1
f 15/2/1 13/2/1 12/2/1
f 15/1/1 12/1/1 14/1/1
f 16/2/1 11/2/1 13/2/1
f 16/2/1 13/2/1 15/2/1
f 20/1/1 18/1/1 17/1/1
f 21/2/1 19/2/1 18/2/1
f 21/1/1 18/1/1 20/1/1
f 22/2/1 19/2/1 21/2/1
f 26/2/1 23/2/1 22/2/1
f 27/2/1 23/2/1 26/2/1
f 28/1/1 25/1/1 24/1/1
f 29/2/1 26/2/1 25/2/1
f 29/1/1 25/1/1 28/1/1
f 30/2/1 26/2/1 29/2/1
f 33/1/1 32/1/1 31/1/1
f 34/1/1 32/1/1 33/1/1
f 37/2/1 36/2/1 35/2/1
f 38/2/1 36/2/1 37/2/1
f 41/1/1 40/1/1 39/1/1
f 42/1/1 40/1/1 41/1/1
f 45/1/1 44/1/1 43/1/1
f 46/1/1 44/1/1 45/1/1
f 47/1/2 48/1/2 49/1/2
f 49/1/2 48/1/2 50/1/2
f 51/1/2 52/1/2 53/1/2
f 53/1/2 52/1/2 54/1/2
f 55/1/2 56/1/2 57/1/2
f 57/1/2 56/1/2 58/1/2
f 57/2/2 58/2/2 59/2/2
f 59/2/2 58/2/2 60/2/2
f 61/1/2 62/1/2 64/1/2
f 62/2/2 63/2/2 65/2/2
f 64/1/2 62/1/2 65/1/2
f 65/2/2 63/2/2 66/2/2
f 66/2/2 67/2/2 70/2/2
f 70/2/2 67/2/2 71/2/2
f 68/1/2 69/1/2 72/1/2
f 69/2/2 70/2/2 73/2/2
f 72/1/2 69/1/2 73/1/2
f 73/2/2 70/2/2 74/2/2
f 75/1/2 76/1/2 79/1/2
f 77/2/2 78/2/2 80/2/2
f 75/1/2 79/1/2 81/1/2
f 79/2/2 80/2/2 82/2/2
f 81/1/2 79/1/2 82/1/2
f 80/2/2 78/2/2 83/2/2
f 82/2/2 80/2/2 83/2/2
f 84/1/2 85/1/2 86/1/2
f 86/1/2 85/1/2 87/1/2
f 88/1/2 89/1/2 90/1/2
f 90/1/2 89/1/2 91/1/2
f 92/1/2 93/1/2 94/1/2
f 94/1/2 93/1/2 95/1/2
f 98/1/3 97/1/3 96/1/3
f 99/1/3 97/1/3 98/1/3
f 102/1/3 101/1/3 100/1/3
f 103/1/3 101/1/3 102/1/3
f 106/1/3 105/1/3 104/1/3
f 107/1/3 105/1/3 106/1/3
f 111/1/3 109/1/3 108/1/3
f 112/1/3 109/1/3 111/1/3
f 114/1/3 111/1/3 110/1/3
f 114/1/3 113/1/3 112/1/3
f 114/1/3 112/1/3 111/1/3
f 115/1/3 113/1/3 114/1/3
f 116/1/3 113/1/3 115/1/3
f 117/1/3 113/1/3 116/1/3
f 118/1/3 116/1/3 115/1/3
f 119/1/3 116/1/3 118/1/3
f 122/1/3 121/1/3 120/1/3
f 123/1/3 121/1/3 122/1/3
f 126/1/3 125/1/3 124/1/3
f 127/1/3 125/1/3 126/1/3
f 131/2/3 129/2/3 128/2/3
f 131/2/3 130/2/3 129/2/3
f 132/2/3 130/2/3 131/2/3
f 133/2/3 130/2/3 132/2/3
f 134/2/3 130/2/3 133/2/3
f 135/1/4 136/1/4 137/1/4
f 137/1/4 136/1/4 138/1/4
f 139/1/4 140/1/4 141/1/4
f 141/1/4 140/1/4 142/1/4
f 143/1/4 144/1/4 145/1/4
f 145/1/4 144/1/4 146/1/4
f 147/1/4 148/1/4 150/1/4
f 148/1/4 149/1/4 150/1/4
f 150/1/4 149/1/4 151/1/4
f 151/1/4 149/1/4 152/1/4
f 152/1/4 149/1/4 153/1/4
f 154/1/4 155/1/4 156/1/4
f 156/1/4 155/1/4 157/1/4
f 158/1/4 159/1/4 160/1/4
f 160/1/4 159/1/4 161/1/4
f 162/2/4 163/2/4 165/2/4
f 165/2/4 163/2/4 166/2/4
f 164/2/4 165/2/4 168/2/4
f 168/2/4 165/2/4 169/2/4
f 166/2/4 167/2/4 170/2/4
f 170/2/4 167/2/4 171/2/4
f 169/2/4 170/2/4 172/2/4
f 172/2/4 170/2/4 173/2/4
f 174/2/4 175/2/4 176/2/4
f 176/2/4 175/2/4 177/2/4
f 182/1/5 181/1/5 180/1/5
f 183/1/5 181/1/5 182/1/5
f 184/1/5 179/1/5 178/1/5
f 185/1/5 179/1/5 184/1/5
f 186/2/5 185/2/5 184/2/5
f 187/2/5 185/2/5 186/2/5
f 194/1/5 189/1/5 188/1/5
f 195/1/5 189/1/5 194/1/5
f 196/1/5 193/1/5 192/1/5
f 198/1/5 191/1/5 190/1/5
f 199/1/5 191/1/5 198/1/5
f 200/1/5 197/1/5 196/1/5
f 200/1/5 196/1/5 192/1/5
f 201/1/5 197/1/5 200/1/5
f 202/1/5 197/1/5 201/1/5
f 203/2/5 199/2/5 198/2/5
f 204/2/5 199/2/5 203/2/5
f 205/2/5 201/2/5 200/2/5
f 206/2/5 201/2/5 205/2/5
f 207/2/5 205/2/5 204/2/5
f 208/2/5 205/2/5 207/2/5
f 211/1/5 210/1/5 209/1/5
f 212/1/5 210/1/5 211/1/5
f 215/1/5 214/1/5 213/1/5
f 216/1/5 214/1/5 215/1/5
f 219/2/5 218/2/5 217/2/5
f 220/2/5 218/2/5 219/2/5
f 221/1/6 222/1/6 225/1/6
f 225/1/6 222/1/6 226/1/6
f 223/1/6 224/1/6 227/1/6
f 227/1/6 224/1/6 228/1/6
f 229/1/6 230/1/6 231/1/6
f 231/1/6 230/1/6 232/1/6
f 233/1/6 234/1/6 237/1/6
f 237/1/6 234/1/6 238/1/6
f 235/1/6 236/1/6 239/1/6
f 239/1/6 236/1/6 240/1/6
f 241/1/6 242/1/6 247/1/6
f 247/1/6 242/1/6 248/1/6
f 243/1/6 244/1/6 249/1/6
f 249/1/6 244/1/6 250/1/6
f 245/1/6 246/1/6 251/1/6
f 251/1/6 246/1/6 252/1/6
f 249/2/6 250/2/6 253/2/6
f 253/2/6 250/2/6 254/2/6
f 251/2/6 252/2/6 255/2/6
f 255/2/6 252/2/6 256/2/6
f 254/2/6 255/2/6 257/2/6
f 257/2/6 255/2/6 258/2/6
f 259/1/6 260/1/6 261/1/6
f 261/1/6 260/1/6 262/1/6
f 263/1/6 264/1/6 265/1/6
f 265/1/6 264/1/6 266/1/6
f 265/2/6 266/2/6 267/2/6
f 267/2/6 266/2/6 268/2/6
