# MagicaVoxel @ Ephtracy

# group
o 

# material
mtllib GLIDER.mtl
usemtl palette

# normals
vn -1 0 0
vn 1 0 0
vn 0 0 1
vn 0 0 -1
vn 0 -1 0
vn 0 1 0

# texcoords
vt 0.822266 0.5
vt 0.869141 0.5
vt 0.958984 0.5

# verts
v -1 1.9 -0.6
v -1 1.9 -1.1
v -1 2 -0.6
v -1 2 -1.1
v -0.9 1.9 -0.4
v -0.9 1.9 -0.6
v -0.9 2 -0.4
v -0.9 2 -0.6
v -0.8 1.9 -0.2
v -0.8 1.9 -0.4
v -0.8 2 -0.2
v -0.8 2 -0.4
v -0.7 1.9 0
v -0.7 1.9 -0.2
v -0.7 2 0
v -0.7 2 -0.2
v -0.6 1.9 0.2
v -0.6 1.9 0
v -0.6 2 0.2
v -0.6 2 0
v -0.5 1.9 0.4
v -0.5 1.9 0.2
v -0.5 2 0.4
v -0.5 2 0.2
v -0.4 1.9 0.6
v -0.4 1.9 0.4
v -0.4 2 0.6
v -0.4 2 0.4
v -0.3 1.9 0.8
v -0.3 1.9 0.6
v -0.3 2 0.8
v -0.3 2 0.6
v -0.2 1.9 0.9
v -0.2 1.9 0.8
v -0.2 2 0.9
v -0.2 2 0.8
v 0.2 1.9 0.9
v 0.2 1.9 0.8
v 0.2 2 0.9
v 0.2 2 0.8
v 0.3 1.9 0.8
v 0.3 1.9 0.6
v 0.3 2 0.8
v 0.3 2 0.6
v 0.4 1.9 0.6
v 0.4 1.9 0.4
v 0.4 2 0.6
v 0.4 2 0.4
v 0.5 1.9 0.4
v 0.5 1.9 0.2
v 0.5 2 0.4
v 0.5 2 0.2
v 0.6 1.9 0.2
v 0.6 1.9 0
v 0.6 2 0.2
v 0.6 2 0
v 0.7 1.9 0
v 0.7 1.9 -0.2
v 0.7 2 0
v 0.7 2 -0.2
v 0.8 1.9 -0.2
v 0.8 1.9 -0.4
v 0.8 2 -0.2
v 0.8 2 -0.4
v 0.9 1.9 -0.4
v 0.9 1.9 -0.6
v 0.9 2 -0.4
v 0.9 2 -0.6
v 1 1.9 -0.6
v 1 1.9 -1.1
v 1 2 -0.6
v 1 2 -1.1
v -0.2 1.9 0.9
v -0.2 2 0.9
v 0.2 1.9 0.9
v 0.2 2 0.9
v -0.3 1.9 0.8
v -0.3 2 0.8
v -0.2 1.9 0.8
v -0.2 2 0.8
v 0.2 1.9 0.8
v 0.2 2 0.8
v 0.3 1.9 0.8
v 0.3 2 0.8
v -0.4 1.9 0.6
v -0.4 2 0.6
v -0.3 1.9 0.6
v -0.3 2 0.6
v 0.3 1.9 0.6
v 0.3 2 0.6
v 0.4 1.9 0.6
v 0.4 2 0.6
v -0.5 1.9 0.4
v -0.5 2 0.4
v -0.4 1.9 0.4
v -0.4 2 0.4
v 0.4 1.9 0.4
v 0.4 2 0.4
v 0.5 1.9 0.4
v 0.5 2 0.4
v -0.6 1.9 0.2
v -0.6 2 0.2
v -0.5 1.9 0.2
v -0.5 2 0.2
v 0.5 1.9 0.2
v 0.5 2 0.2
v 0.6 1.9 0.2
v 0.6 2 0.2
v -0.7 1.9 0
v -0.7 2 0
v -0.6 1.9 0
v -0.6 2 0
v 0.6 1.9 0
v 0.6 2 0
v 0.7 1.9 0
v 0.7 2 0
v -0.8 1.9 -0.2
v -0.8 2 -0.2
v -0.7 1.9 -0.2
v -0.7 2 -0.2
v 0.7 1.9 -0.2
v 0.7 2 -0.2
v 0.8 1.9 -0.2
v 0.8 2 -0.2
v -0.9 1.9 -0.4
v -0.9 2 -0.4
v -0.8 1.9 -0.4
v -0.8 2 -0.4
v 0.8 1.9 -0.4
v 0.8 2 -0.4
v 0.9 1.9 -0.4
v 0.9 2 -0.4
v -1 1.9 -0.6
v -1 2 -0.6
v -0.9 1.9 -0.6
v -0.9 2 -0.6
v 0.9 1.9 -0.6
v 0.9 2 -0.6
v 1 1.9 -0.6
v 1 2 -0.6
v -1 1.9 -1.1
v -1 2 -1.1
v 1 1.9 -1.1
v 1 2 -1.1
v -0.2 1.9 0.9
v 0.2 1.9 0.9
v -0.3 1.9 0.8
v -0.2 1.9 0.8
v -0.1 1.9 0.8
v 0.1 1.9 0.8
v 0.2 1.9 0.8
v 0.3 1.9 0.8
v -0.4 1.9 0.6
v -0.3 1.9 0.6
v -0.2 1.9 0.6
v 0.2 1.9 0.6
v 0.3 1.9 0.6
v 0.4 1.9 0.6
v -0.5 1.9 0.4
v -0.4 1.9 0.4
v -0.3 1.9 0.4
v 0.3 1.9 0.4
v 0.4 1.9 0.4
v 0.5 1.9 0.4
v -0.6 1.9 0.2
v -0.5 1.9 0.2
v -0.4 1.9 0.2
v 0.4 1.9 0.2
v 0.5 1.9 0.2
v 0.6 1.9 0.2
v -0.7 1.9 0
v -0.6 1.9 0
v -0.5 1.9 0
v 0.5 1.9 0
v 0.6 1.9 0
v 0.7 1.9 0
v -0.8 1.9 -0.2
v -0.7 1.9 -0.2
v -0.6 1.9 -0.2
v 0.6 1.9 -0.2
v 0.7 1.9 -0.2
v 0.8 1.9 -0.2
v -0.9 1.9 -0.4
v -0.8 1.9 -0.4
v -0.7 1.9 -0.4
v 0.7 1.9 -0.4
v 0.8 1.9 -0.4
v 0.9 1.9 -0.4
v -1 1.9 -0.6
v -0.9 1.9 -0.6
v -0.8 1.9 -0.6
v 0.8 1.9 -0.6
v 0.9 1.9 -0.6
v 1 1.9 -0.6
v -0.9 1.9 -1
v -0.7 1.9 -1
v -0.5 1.9 -1
v -0.4 1.9 -1
v -0.2 1.9 -1
v -0.1 1.9 -1
v 0.1 1.9 -1
v 0.2 1.9 -1
v 0.4 1.9 -1
v 0.5 1.9 -1
v 0.7 1.9 -1
v 0.9 1.9 -1
v -1 1.9 -1.1
v 1 1.9 -1.1
v -0.2 2 0.9
v 0.2 2 0.9
v -0.3 2 0.8
v -0.2 2 0.8
v -0.1 2 0.8
v 0.1 2 0.8
v 0.2 2 0.8
v 0.3 2 0.8
v -0.4 2 0.6
v -0.3 2 0.6
v -0.2 2 0.6
v 0.2 2 0.6
v 0.3 2 0.6
v 0.4 2 0.6
v -0.5 2 0.4
v -0.4 2 0.4
v -0.3 2 0.4
v 0.3 2 0.4
v 0.4 2 0.4
v 0.5 2 0.4
v -0.6 2 0.2
v -0.5 2 0.2
v -0.4 2 0.2
v 0.4 2 0.2
v 0.5 2 0.2
v 0.6 2 0.2
v -0.7 2 0
v -0.6 2 0
v -0.5 2 0
v 0.5 2 0
v 0.6 2 0
v 0.7 2 0
v -0.8 2 -0.2
v -0.7 2 -0.2
v -0.6 2 -0.2
v 0.6 2 -0.2
v 0.7 2 -0.2
v 0.8 2 -0.2
v -0.9 2 -0.4
v -0.8 2 -0.4
v -0.7 2 -0.4
v 0.7 2 -0.4
v 0.8 2 -0.4
v 0.9 2 -0.4
v -1 2 -0.6
v -0.9 2 -0.6
v -0.8 2 -0.6
v 0.8 2 -0.6
v 0.9 2 -0.6
v 1 2 -0.6
v -0.9 2 -1
v -0.7 2 -1
v -0.5 2 -1
v -0.4 2 -1
v -0.2 2 -1
v -0.1 2 -1
v 0.1 2 -1
v 0.2 2 -1
v 0.4 2 -1
v 0.5 2 -1
v 0.7 2 -1
v 0.9 2 -1
v -1 2 -1.1
v 1 2 -1.1

# faces
f 3/2/1 2/2/1 1/2/1
f 4/2/1 2/2/1 3/2/1
f 7/2/1 6/2/1 5/2/1
f 8/2/1 6/2/1 7/2/1
f 11/2/1 10/2/1 9/2/1
f 12/2/1 10/2/1 11/2/1
f 15/2/1 14/2/1 13/2/1
f 16/2/1 14/2/1 15/2/1
f 19/2/1 18/2/1 17/2/1
f 20/2/1 18/2/1 19/2/1
f 23/2/1 22/2/1 21/2/1
f 24/2/1 22/2/1 23/2/1
f 27/2/1 26/2/1 25/2/1
f 28/2/1 26/2/1 27/2/1
f 31/2/1 30/2/1 29/2/1
f 32/2/1 30/2/1 31/2/1
f 35/2/1 34/2/1 33/2/1
f 36/2/1 34/2/1 35/2/1
f 37/2/2 38/2/2 39/2/2
f 39/2/2 38/2/2 40/2/2
f 41/2/2 42/2/2 43/2/2
f 43/2/2 42/2/2 44/2/2
f 45/2/2 46/2/2 47/2/2
f 47/2/2 46/2/2 48/2/2
f 49/2/2 50/2/2 51/2/2
f 51/2/2 50/2/2 52/2/2
f 53/2/2 54/2/2 55/2/2
f 55/2/2 54/2/2 56/2/2
f 57/2/2 58/2/2 59/2/2
f 59/2/2 58/2/2 60/2/2
f 61/2/2 62/2/2 63/2/2
f 63/2/2 62/2/2 64/2/2
f 65/2/2 66/2/2 67/2/2
f 67/2/2 66/2/2 68/2/2
f 69/2/2 70/2/2 71/2/2
f 71/2/2 70/2/2 72/2/2
f 75/2/3 74/2/3 73/2/3
f 76/2/3 74/2/3 75/2/3
f 79/2/3 78/2/3 77/2/3
f 80/2/3 78/2/3 79/2/3
f 83/2/3 82/2/3 81/2/3
f 84/2/3 82/2/3 83/2/3
f 87/2/3 86/2/3 85/2/3
f 88/2/3 86/2/3 87/2/3
f 91/2/3 90/2/3 89/2/3
f 92/2/3 90/2/3 91/2/3
f 95/2/3 94/2/3 93/2/3
f 96/2/3 94/2/3 95/2/3
f 99/2/3 98/2/3 97/2/3
f 100/2/3 98/2/3 99/2/3
f 103/2/3 102/2/3 101/2/3
f 104/2/3 102/2/3 103/2/3
f 107/2/3 106/2/3 105/2/3
f 108/2/3 106/2/3 107/2/3
f 111/2/3 110/2/3 109/2/3
f 112/2/3 110/2/3 111/2/3
f 115/2/3 114/2/3 113/2/3
f 116/2/3 114/2/3 115/2/3
f 119/2/3 118/2/3 117/2/3
f 120/2/3 118/2/3 119/2/3
f 123/2/3 122/2/3 121/2/3
f 124/2/3 122/2/3 123/2/3
f 127/2/3 126/2/3 125/2/3
f 128/2/3 126/2/3 127/2/3
f 131/2/3 130/2/3 129/2/3
f 132/2/3 130/2/3 131/2/3
f 135/2/3 134/2/3 133/2/3
f 136/2/3 134/2/3 135/2/3
f 139/2/3 138/2/3 137/2/3
f 140/2/3 138/2/3 139/2/3
f 141/2/4 142/2/4 143/2/4
f 143/2/4 142/2/4 144/2/4
f 148/2/5 146/2/5 145/2/5
f 149/2/5 146/2/5 148/2/5
f 150/2/5 146/2/5 149/2/5
f 151/2/5 146/2/5 150/2/5
f 154/2/5 148/2/5 147/2/5
f 155/1/5 149/1/5 148/1/5
f 155/2/5 148/2/5 154/2/5
f 156/2/5 152/2/5 151/2/5
f 156/1/5 151/1/5 150/1/5
f 157/2/5 152/2/5 156/2/5
f 160/2/5 154/2/5 153/2/5
f 161/3/5 155/3/5 154/3/5
f 161/2/5 154/2/5 160/2/5
f 162/2/5 158/2/5 157/2/5
f 162/3/5 157/3/5 156/3/5
f 163/2/5 158/2/5 162/2/5
f 166/2/5 160/2/5 159/2/5
f 167/3/5 161/3/5 160/3/5
f 167/2/5 160/2/5 166/2/5
f 168/2/5 164/2/5 163/2/5
f 168/3/5 163/3/5 162/3/5
f 169/2/5 164/2/5 168/2/5
f 172/2/5 166/2/5 165/2/5
f 173/1/5 167/1/5 166/1/5
f 173/2/5 166/2/5 172/2/5
f 174/2/5 170/2/5 169/2/5
f 174/1/5 169/1/5 168/1/5
f 175/2/5 170/2/5 174/2/5
f 178/2/5 172/2/5 171/2/5
f 179/3/5 173/3/5 172/3/5
f 179/2/5 172/2/5 178/2/5
f 180/2/5 176/2/5 175/2/5
f 180/3/5 175/3/5 174/3/5
f 181/2/5 176/2/5 180/2/5
f 184/2/5 178/2/5 177/2/5
f 185/3/5 179/3/5 178/3/5
f 185/2/5 178/2/5 184/2/5
f 186/2/5 182/2/5 181/2/5
f 186/3/5 181/3/5 180/3/5
f 187/2/5 182/2/5 186/2/5
f 190/2/5 184/2/5 183/2/5
f 191/1/5 185/1/5 184/1/5
f 191/2/5 184/2/5 190/2/5
f 192/2/5 188/2/5 187/2/5
f 192/1/5 187/1/5 186/1/5
f 193/2/5 188/2/5 192/2/5
f 195/2/5 190/2/5 189/2/5
f 195/1/5 191/1/5 190/1/5
f 196/3/5 179/3/5 185/3/5
f 196/1/5 191/1/5 195/1/5
f 196/1/5 185/1/5 191/1/5
f 197/1/5 167/1/5 173/1/5
f 197/3/5 179/3/5 196/3/5
f 197/3/5 173/3/5 179/3/5
f 198/3/5 161/3/5 167/3/5
f 198/1/5 167/1/5 197/1/5
f 199/1/5 149/1/5 155/1/5
f 199/3/5 161/3/5 198/3/5
f 199/3/5 155/3/5 161/3/5
f 200/3/5 150/3/5 149/3/5
f 200/1/5 149/1/5 199/1/5
f 201/1/5 156/1/5 150/1/5
f 201/3/5 150/3/5 200/3/5
f 202/3/5 162/3/5 156/3/5
f 202/1/5 156/1/5 201/1/5
f 202/3/5 168/3/5 162/3/5
f 203/1/5 174/1/5 168/1/5
f 203/3/5 168/3/5 202/3/5
f 204/3/5 186/3/5 180/3/5
f 204/1/5 174/1/5 203/1/5
f 204/3/5 180/3/5 174/3/5
f 205/1/5 193/1/5 192/1/5
f 205/3/5 186/3/5 204/3/5
f 205/1/5 192/1/5 186/1/5
f 206/2/5 194/2/5 193/2/5
f 206/1/5 193/1/5 205/1/5
f 207/2/5 198/2/5 197/2/5
f 207/2/5 204/2/5 203/2/5
f 207/2/5 206/2/5 205/2/5
f 207/2/5 199/2/5 198/2/5
f 207/2/5 197/2/5 196/2/5
f 207/2/5 205/2/5 204/2/5
f 207/2/5 202/2/5 201/2/5
f 207/2/5 200/2/5 199/2/5
f 207/2/5 195/2/5 189/2/5
f 207/2/5 203/2/5 202/2/5
f 207/2/5 196/2/5 195/2/5
f 207/2/5 201/2/5 200/2/5
f 208/2/5 194/2/5 206/2/5
f 208/2/5 206/2/5 207/2/5
f 209/2/6 210/2/6 212/2/6
f 212/2/6 210/2/6 213/2/6
f 213/2/6 210/2/6 214/2/6
f 214/2/6 210/2/6 215/2/6
f 211/2/6 212/2/6 218/2/6
f 212/1/6 213/1/6 219/1/6
f 218/2/6 212/2/6 219/2/6
f 215/2/6 216/2/6 220/2/6
f 214/1/6 215/1/6 220/1/6
f 220/2/6 216/2/6 221/2/6
f 217/2/6 218/2/6 224/2/6
f 218/3/6 219/3/6 225/3/6
f 224/2/6 218/2/6 225/2/6
f 221/2/6 222/2/6 226/2/6
f 220/3/6 221/3/6 226/3/6
f 226/2/6 222/2/6 227/2/6
f 223/2/6 224/2/6 230/2/6
f 224/3/6 225/3/6 231/3/6
f 230/2/6 224/2/6 231/2/6
f 227/2/6 228/2/6 232/2/6
f 226/3/6 227/3/6 232/3/6
f 232/2/6 228/2/6 233/2/6
f 229/2/6 230/2/6 236/2/6
f 230/1/6 231/1/6 237/1/6
f 236/2/6 230/2/6 237/2/6
f 233/2/6 234/2/6 238/2/6
f 232/1/6 233/1/6 238/1/6
f 238/2/6 234/2/6 239/2/6
f 235/2/6 236/2/6 242/2/6
f 236/3/6 237/3/6 243/3/6
f 242/2/6 236/2/6 243/2/6
f 239/2/6 240/2/6 244/2/6
f 238/3/6 239/3/6 244/3/6
f 244/2/6 240/2/6 245/2/6
f 241/2/6 242/2/6 248/2/6
f 242/3/6 243/3/6 249/3/6
f 248/2/6 242/2/6 249/2/6
f 245/2/6 246/2/6 250/2/6
f 244/3/6 245/3/6 250/3/6
f 250/2/6 246/2/6 251/2/6
f 247/2/6 248/2/6 254/2/6
f 248/1/6 249/1/6 255/1/6
f 254/2/6 248/2/6 255/2/6
f 251/2/6 252/2/6 256/2/6
f 250/1/6 251/1/6 256/1/6
f 256/2/6 252/2/6 257/2/6
f 253/2/6 254/2/6 259/2/6
f 254/1/6 255/1/6 259/1/6
f 249/3/6 243/3/6 260/3/6
f 259/1/6 255/1/6 260/1/6
f 255/1/6 249/1/6 260/1/6
f 237/1/6 231/1/6 261/1/6
f 260/3/6 243/3/6 261/3/6
f 243/3/6 237/3/6 261/3/6
f 231/3/6 225/3/6 262/3/6
f 261/1/6 231/1/6 262/1/6
f 219/1/6 213/1/6 263/1/6
f 262/3/6 225/3/6 263/3/6
f 225/3/6 219/3/6 263/3/6
f 213/3/6 214/3/6 264/3/6
f 263/1/6 213/1/6 264/1/6
f 214/1/6 220/1/6 265/1/6
f 264/3/6 214/3/6 265/3/6
f 220/3/6 226/3/6 266/3/6
f 265/1/6 220/1/6 266/1/6
f 226/3/6 232/3/6 266/3/6
f 232/1/6 238/1/6 267/1/6
f 266/3/6 232/3/6 267/3/6
f 244/3/6 250/3/6 268/3/6
f 267/1/6 238/1/6 268/1/6
f 238/3/6 244/3/6 268/3/6
f 256/1/6 257/1/6 269/1/6
f 268/3/6 250/3/6 269/3/6
f 250/1/6 256/1/6 269/1/6
f 257/2/6 258/2/6 270/2/6
f 269/1/6 257/1/6 270/1/6
f 261/2/6 262/2/6 271/2/6
f 267/2/6 268/2/6 271/2/6
f 269/2/6 270/2/6 271/2/6
f 262/2/6 263/2/6 271/2/6
f 260/2/6 261/2/6 271/2/6
f 268/2/6 269/2/6 271/2/6
f 265/2/6 266/2/6 271/2/6
f 263/2/6 264/2/6 271/2/6
f 253/2/6 259/2/6 271/2/6
f 266/2/6 267/2/6 271/2/6
f 259/2/6 260/2/6 271/2/6
f 264/2/6 265/2/6 271/2/6
f 270/2/6 258/2/6 272/2/6
f 271/2/6 270/2/6 272/2/6
